<?xml version="1.0" standalone="no"?>
<!DOCTYPE svg PUBLIC "-//W3C//DTD SVG 20010904//EN"
 "http://www.w3.org/TR/2001/REC-SVG-20010904/DTD/svg10.dtd">
<svg version="1.0" xmlns="http://www.w3.org/2000/svg"
 width="200.000000pt" height="200.000000pt" viewBox="0 0 200.000000 200.000000"
 preserveAspectRatio="xMidYMid meet">

<g transform="translate(0.000000,200.000000) scale(0.100000,-0.100000)"
fill="#000000" stroke="none">
<path d="M756 1951 c-4 -6 -3 -18 4 -26 9 -10 4 -27 -18 -72 -30 -59 -34 -102
-6 -66 17 23 18 36 2 28 -7 -4 -5 0 6 9 10 8 15 20 10 27 -4 7 -3 10 4 5 13
-8 32 23 32 51 0 28 -25 59 -34 44z m18 -17 c3 -8 2 -12 -4 -9 -6 3 -10 10
-10 16 0 14 7 11 14 -7z m-3 -57 c-10 -9 -11 -8 -5 6 3 10 9 15 12 12 3 -3 0
-11 -7 -18z"/>
<path d="M530 1849 c0 -21 21 -49 32 -43 6 4 8 3 5 -4 -4 -5 -4 -17 -1 -26 9
-23 124 -23 124 -1 0 11 -13 15 -53 15 -51 0 -54 1 -70 35 -16 33 -37 47 -37
24z m24 -15 c3 -8 2 -12 -4 -9 -6 3 -10 10 -10 16 0 14 7 11 14 -7z m79 -61
c-7 -2 -21 -2 -30 0 -10 3 -4 5 12 5 17 0 24 -2 18 -5z"/>
<path d="M405 1770 c-4 -6 -3 -16 3 -22 6 -6 12 -6 17 2 4 6 3 16 -3 22 -6 6
-12 6 -17 -2z"/>
<path d="M870 1759 c0 -5 5 -7 10 -4 6 3 10 8 10 11 0 2 -4 4 -10 4 -5 0 -10
-5 -10 -11z"/>
<path d="M486 1593 c-4 -9 4 -13 27 -12 18 1 24 3 14 6 -9 2 -15 8 -13 12 3 4
-1 8 -9 8 -8 0 -16 -6 -19 -14z"/>
<path d="M573 1580 c-11 -30 -12 -30 -85 -30 -46 0 -79 5 -87 13 -11 10 -12 5
-8 -28 2 -22 7 -49 10 -60 4 -11 36 -116 71 -234 36 -118 65 -217 64 -220 -1
-3 2 -13 5 -21 4 -8 19 -53 35 -100 l27 -85 38 -3 c20 -2 37 -8 37 -15 0 -8 3
-8 12 1 16 16 53 15 67 -2 12 -15 47 -11 58 7 17 27 61 202 53 207 -6 4 -5 23
4 51 8 24 42 138 75 253 61 207 73 272 49 248 -16 -16 -144 -16 -154 0 -10 15
-19 -12 -50 -140 -13 -57 -27 -109 -31 -115 -5 -7 -8 -21 -9 -32 -1 -27 -45
-217 -49 -213 -13 12 -51 198 -44 211 6 10 4 20 -5 30 -13 13 -12 19 4 50 18
34 23 107 7 107 -4 0 -6 -20 -5 -45 2 -71 -8 -62 -31 27 -12 46 -28 94 -36
108 -9 18 -10 31 -4 43 6 9 6 17 2 17 -5 0 -14 -13 -20 -30z"/>
<path d="M641 1569 c1 -24 4 -34 6 -21 2 12 9 19 15 16 5 -4 4 4 -2 17 -19 36
-20 36 -19 -12z"/>
<path d="M1070 1203 c0 -203 4 -374 9 -381 6 -10 52 -13 209 -10 111 2 202 2
202 1 0 -7 -68 -36 -85 -37 -16 -1 -21 -9 -23 -39 -3 -29 -7 -37 -20 -35 -26
5 -29 -66 -4 -84 14 -10 20 -30 25 -88 8 -100 26 -124 96 -128 30 -2 59 2 67
9 16 13 19 75 4 84 -5 3 -10 1 -10 -4 0 -17 -27 -13 -34 5 -3 9 -6 35 -6 59 0
38 4 46 28 57 22 11 28 21 30 55 l3 43 -30 -6 -31 -6 0 58 c0 55 2 61 34 86
87 70 111 238 45 322 -11 14 -24 24 -27 22 -4 -2 -18 2 -32 10 -15 8 -19 13
-10 14 17 0 50 47 70 98 31 79 -13 219 -72 230 -13 2 -112 6 -220 9 -114 2
-198 8 -198 14 0 5 -4 9 -10 9 -6 0 -10 -129 -10 -367z m322 179 c6 -6 11 -24
10 -39 -3 -73 -17 -86 -94 -81 l-52 3 3 60 c1 33 5 64 8 68 8 13 111 3 125
-11z m19 -291 c23 -19 24 -20 9 -63 -15 -42 -16 -43 -71 -52 -82 -13 -89 -8
-89 62 0 32 3 62 7 65 3 4 32 7 64 7 41 0 63 -5 80 -19z"/>
<path d="M696 1497 c3 -10 9 -15 12 -12 3 3 0 11 -7 18 -10 9 -11 8 -5 -6z"/>
<path d="M246 1461 c-4 -5 -2 -12 3 -15 5 -4 12 -2 15 3 4 5 2 12 -3 15 -5 4
-12 2 -15 -3z"/>
<path d="M700 1450 c-6 -11 -8 -20 -6 -20 3 0 10 9 16 20 6 11 8 20 6 20 -3 0
-10 -9 -16 -20z"/>
<path d="M42 1015 c0 -16 2 -22 5 -12 2 9 2 23 0 30 -3 6 -5 -1 -5 -18z"/>
<path d="M620 568 c0 -125 2 -140 20 -158 20 -20 65 -26 87 -12 8 5 13 43 15
107 l3 100 30 0 30 0 2 -94 c1 -51 4 -100 7 -108 4 -10 20 -13 58 -11 l53 3 3
131 c2 117 1 133 -17 156 -18 22 -26 24 -78 21 -83 -5 -83 -5 -83 -20 0 -7 -7
-13 -15 -13 -8 0 -15 8 -15 18 0 14 -9 17 -50 17 l-50 0 0 -137z"/>
<path d="M1086 700 c-16 -5 -32 -7 -36 -5 -11 7 -50 -34 -61 -62 -13 -34 -11
-124 4 -149 40 -69 53 -77 135 -82 91 -5 132 10 157 58 20 38 20 57 1 41 -8
-7 -34 -11 -58 -9 -28 2 -47 -2 -54 -11 -16 -21 -64 -6 -64 20 0 15 6 20 23
19 12 -1 54 -2 94 -1 89 1 99 13 79 91 -15 58 -31 78 -67 86 -52 11 -125 13
-153 4z m104 -90 c13 -24 3 -30 -45 -30 -50 0 -60 8 -39 31 20 22 72 22 84 -1z"/>
<path d="M97 569 c4 -13 8 -18 11 -10 2 7 -1 18 -6 23 -8 8 -9 4 -5 -13z"/>
<path d="M536 531 c-6 -9 -23 -12 -57 -9 l-49 5 0 -31 c0 -17 -3 -41 -6 -52
-6 -24 8 -33 64 -41 51 -7 69 18 63 87 -4 37 -9 50 -15 41z"/>
<path d="M1799 413 c-13 -16 -12 -17 4 -4 9 7 17 15 17 17 0 8 -8 3 -21 -13z"/>
<path d="M201 398 c18 -33 182 -195 186 -183 3 9 -181 205 -193 205 -2 0 1
-10 7 -22z"/>
<path d="M1764 368 l-19 -23 23 19 c21 18 27 26 19 26 -2 0 -12 -10 -23 -22z"/>
<path d="M1680 279 c-30 -28 -87 -72 -126 -97 -39 -26 -79 -53 -90 -60 -10 -7
0 -3 22 8 49 23 186 125 228 169 44 46 28 37 -34 -20z"/>
<path d="M400 206 c0 -2 8 -10 18 -17 15 -13 16 -12 3 4 -13 16 -21 21 -21 13z"/>
<path d="M455 165 c11 -9 34 -23 50 -31 28 -14 29 -14 10 1 -11 9 -33 23 -50
31 -28 14 -29 14 -10 -1z"/>
<path d="M570 101 c25 -18 149 -63 162 -59 11 4 0 9 -92 40 -25 8 -54 19 -65
23 -16 5 -17 5 -5 -4z"/>
<path d="M1407 99 c-10 -6 -48 -21 -85 -34 -37 -14 -60 -24 -51 -25 8 0 42 11
76 24 65 25 104 45 88 45 -5 0 -18 -4 -28 -10z"/>
<path d="M751 37 c3 -4 36 -13 75 -22 76 -16 305 -14 359 4 23 7 14 8 -35 3
-122 -13 -292 -7 -375 14 -16 4 -27 4 -24 1z"/>
<path d="M1228 33 c7 -3 16 -2 19 1 4 3 -2 6 -13 5 -11 0 -14 -3 -6 -6z"/>
</g>
</svg>
