<?xml version="1.0" standalone="no"?>
<!DOCTYPE svg PUBLIC "-//W3C//DTD SVG 20010904//EN"
 "http://www.w3.org/TR/2001/REC-SVG-20010904/DTD/svg10.dtd">
<svg version="1.0" xmlns="http://www.w3.org/2000/svg"
 width="64.000000pt" height="64.000000pt" viewBox="0 0 64.000000 64.000000"
 preserveAspectRatio="xMidYMid meet">

<g transform="translate(0.000000,64.000000) scale(0.100000,-0.100000)"
fill="#000000" stroke="none">
<path d="M110 540 c-19 -19 -20 -33 -20 -218 0 -163 3 -201 16 -220 15 -21 20
-22 214 -22 194 0 199 1 214 22 13 19 16 57 16 220 0 185 -1 199 -20 218 -19
19 -33 20 -210 20 -177 0 -191 -1 -210 -20z m415 -220 l0 -215 -205 0 -205 0
-3 205 c-1 112 0 210 3 217 3 11 48 13 207 11 l203 -3 0 -215z"/>
</g>
</svg>
